<?xml version="1.0" encoding="utf-8"?>
<!-- Generator: Adobe Illustrator 23.0.4, SVG Export Plug-In . SVG Version: 6.00 Build 0)  -->
<!DOCTYPE svg PUBLIC "-//W3C//DTD SVG 1.1//EN" "http://www.w3.org/Graphics/SVG/1.1/DTD/svg11.dtd" [
	<!ENTITY ns_extend "http://ns.adobe.com/Extensibility/1.0/">
	<!ENTITY ns_ai "http://ns.adobe.com/AdobeIllustrator/10.0/">
	<!ENTITY ns_graphs "http://ns.adobe.com/Graphs/1.0/">
	<!ENTITY ns_vars "http://ns.adobe.com/Variables/1.0/">
	<!ENTITY ns_imrep "http://ns.adobe.com/ImageReplacement/1.0/">
	<!ENTITY ns_sfw "http://ns.adobe.com/SaveForWeb/1.0/">
	<!ENTITY ns_custom "http://ns.adobe.com/GenericCustomNamespace/1.0/">
	<!ENTITY ns_adobe_xpath "http://ns.adobe.com/XPath/1.0/">
]>
<svg version="1.1" id="レイヤー_1" xmlns:x="&ns_extend;" xmlns:i="&ns_ai;" xmlns:graph="&ns_graphs;"
	 xmlns="http://www.w3.org/2000/svg" xmlns:xlink="http://www.w3.org/1999/xlink" x="0px" y="0px" viewBox="0 0 672.1 860.2"
	 enable-background="new 0 0 672.1 860.2" xml:space="preserve">
<metadata>
	<sfw  xmlns="&ns_sfw;">
		<slices></slices>
		<sliceSourceBounds  bottomLeftOrigin="true" height="860.2" width="672.1" x="463.9" y="-1030.1"></sliceSourceBounds>
	</sfw>
</metadata>
<g>
	<path fill="#F7F0D5" stroke="#CC7337" stroke-width="31" stroke-miterlimit="10" d="M656.2,166.6C650.1,83.8,571.5,19,480.5,19
		c-52.6,0-99.2,21.5-129.4,55.4c-7.4,8.2-20.4,8.1-27.6-0.4c-30.1-35.7-78-58.4-132.1-58.4c-90.9,0-169.4,64.7-175.6,147.4
		C13,202.1,26.7,238.4,52,266.5c3.3,3.7,5,8.5,4.7,13.4l-35,552.8c-0.4,6.6,4.6,12,11.2,12H639c6.6,0,11.7-5.4,11.2-12l-34.8-548.9
		c-0.3-4.9,1.4-9.7,4.7-13.4C645.4,242.3,659.2,205.9,656.2,166.6z"/>
	<g>
		<g>
			<path fill="#EADBAD" d="M108.7,779.5c-0.4-1.1-0.2-2.6,0.8-3.4c1.1-0.8,1.6-2.1,0.9-3.4c-0.6-1.1-2.3-1.7-3.4-0.9
				c-2.8,2.1-4.2,5.6-3.1,9C104.9,783.8,109.7,782.5,108.7,779.5L108.7,779.5z"/>
		</g>
	</g>
	<g>
		<g>
			<path fill="#EADBAD" d="M108.3,780.2c0.2-0.2,0.1-0.1-0.3,0.2c-0.4,0.2-0.5,0.2-0.3,0.1c-0.5,0-0.6,0.1-0.3,0.1
				c-0.1,0-0.3,0-0.4-0.1c0.2,0.1,0.1,0-0.3-0.1c0.2,0.1,0.1,0.1-0.2-0.2c0,0,0.1,0.1,0.1,0.1c-0.2-0.2-0.4-0.4-0.4-0.7
				c-0.1-0.3-0.1-0.6,0-0.9c0.1-0.1,0.1-0.3,0.2-0.4c0.3-0.4,0.4-0.4,0.2-0.3c0.4-0.3,0.4-0.3,0.2-0.2c0.4-0.2,0.5-0.2,0.3-0.1
				c0.5,0,0.6-0.1,0.3-0.1c0.1,0,0.3,0,0.4,0.1c-0.2-0.1-0.1,0,0.3,0.1c0.3,0.3,0.4,0.4,0.3,0.2c-0.2-0.1-0.3-0.3-0.5-0.4
				c-0.7-0.3-0.8-0.3-0.2-0.1c-0.2-0.1-0.1-0.1,0.3,0.2c-0.3-0.3,0.4,0.5,0.2,0.2c0.2,0.4,0.2,0.5,0.1,0.3c-0.1-0.3,0-0.1,0,0.4
				c0-0.1,0-0.1,0-0.2c0-0.4-0.1,0.7,0,0.2c0.1-0.2,0-0.1-0.1,0.3c0.1-0.2,0.4-0.4-0.2,0.2c0.2-0.2,0.1-0.1-0.3,0.2
				c-0.1,0.1-0.3,0.1-0.4,0.2c0.2-0.1,0.1-0.1-0.3,0c-0.5-0.1-0.6-0.1-0.3,0c-0.1-0.1-0.3-0.1-0.4-0.2c0.2,0.1,0.1,0.1-0.2-0.2
				c0.1,0.1,0.1,0.1,0.2,0.2c-0.5-0.5-0.2-0.3-0.1-0.1c-0.2-0.4-0.2-0.5-0.1-0.3c0.1,0.4,0-0.7,0-0.2c0.1-0.5,0.1-0.6,0-0.3
				c0.1-0.1,0.1-0.3,0.2-0.4c0.3-0.3,0.4-0.4,0.2-0.2c-0.9,1-1,2.6,0,3.5c1,1,2.6,1,3.5,0c1.3-1.3,1.3-3.1,0.5-4.7
				c-0.8-1.5-2.7-2.3-4.3-1.9c-1.7,0.5-2.6,2.1-2.7,3.7c-0.1,1.8,1.1,3.2,2.7,3.8c-0.4-0.2-0.7-0.4-1.1-0.6c0.9,1,2.4,1.3,3.6,0.9
				c1.6-0.4,2.5-1.8,2.6-3.4c0.2-3.1-4.3-4.7-6.3-2.4c-0.9,1.1-1,2.5,0,3.5C105.6,781.1,107.4,781.3,108.3,780.2L108.3,780.2z"/>
		</g>
	</g>
	<g>
		<g>
			<path fill="#EADBAD" d="M166.3,728.8c-0.8,0.3-1.7,0.6-2.5,0.9c-1.3,0.5-2.1,1.7-1.7,3.1c0.3,1.2,1.8,2.2,3.1,1.7
				c0.8-0.3,1.7-0.6,2.5-0.9c1.3-0.5,2.1-1.7,1.7-3.1C169,729.3,167.6,728.3,166.3,728.8L166.3,728.8z"/>
		</g>
	</g>
	<g>
		<g>
			<path fill="#EADBAD" d="M208.2,802.7c-2.1,0-4.3,0-6.4-0.1c0.8,1.1,1.6,2.1,2.4,3.2c0.7-2,1.4-4,2.1-6c0.4-1.1-0.2-2.3-1.1-2.8
				c-1.7-1-3.4-0.4-4.5,1.1c-0.9,1.3-0.6,3.2,0,4.4c0.8,1.7,3.2,2.1,4.8,1.5c1.9-0.7,3-2.4,3.9-4.1c-1.3,0.2-2.6,0.3-3.9,0.5
				c-0.3-0.3,0.1-0.6-0.2,0c-0.3,0.5-0.4,0.1,0.1,0.4c0.4,0.9,0.8,1.9,1.1,2.8c0.5-1.9,1.5-3.4,3.2-4.4c2.7-1.7,0.2-6-2.5-4.3
				c-2.8,1.7-4.7,4.3-5.5,7.4c-0.3,1,0.1,2.3,1.1,2.8c4.9,2.3,9.9-4,6.2-8.2c-1-1.1-3.2-0.9-3.9,0.5c-0.3,0.6-0.6,1.5-1.1,1.9
				c-0.6,0.4,1,0.4,1.2,0.9c0.1,0.4-0.2,0.9-0.5,1c-0.4,0.1-0.8,0.2-1.3,0.3c-0.2-0.1-0.4-0.1-0.7-0.2c-0.4-0.9-0.8-1.9-1.1-2.8
				c-0.7,2-1.4,4-2.1,6c-0.5,1.6,0.9,3.1,2.4,3.2c2.1,0,4.3,0,6.4,0.1C211.5,807.7,211.5,802.7,208.2,802.7L208.2,802.7z"/>
		</g>
	</g>
	<g>
		<g>
			<path fill="#EADBAD" d="M304.1,767.4c-5.1,1.8-4,9.6,1.3,10.1c2.4,0.2,4.3-2.1,4.7-4.3c0.4-2.6-0.7-4.8-3.2-5.8
				c-1.3-0.5-2.7,0.6-3.1,1.7c-0.4,1.4-2,2.4-3.5,2.2c0.6,1,1.2,2.1,1.7,3.1c0.5-2,1.6-3.5,3.4-4.5c-1.1-1.1-2.3-2.3-3.4-3.4
				c-0.9,2.1-2.1,4.2-2.7,6.4c-0.5,1.8,0.9,3.5,2.2,4.5c2.2,1.7,6.3,1.1,8-1c2.1-2.7,1-6.4-2-7.8c-3.2-1.4-6.7-0.4-8,2.9
				c-1.2,3,3.7,4.3,4.8,1.3c-0.1,0.3,0.4,0.1,0.7,0.1c0.4,0.1,0.7,0.5,0.7,0.1c0-0.2-0.1,0.1-0.1,0.1c-0.1,0.1-0.5,0.1-0.8,0.1
				c-0.2,0-0.5-0.1-0.5-0.1c-0.4-0.2-0.1,0.1-0.2-0.4c-0.1,0.6-0.2,1.3-0.3,1.9c0.8-1.9,1.6-3.8,2.5-5.8c1-2.2-1-4.7-3.4-3.4
				c-2.9,1.5-5,4.3-5.7,7.5c-0.3,1.2,0.4,2.8,1.7,3.1c4.2,0.8,8.3-1.5,9.6-5.7c-1,0.6-2.1,1.2-3.1,1.7c-0.6-0.2-0.3-0.4-0.4-0.1
				c-0.1,0.7-0.5,0.3,0.2,0.3c0.6,0,0.4,0.4,0.3,0c-0.1-0.6,0.3-0.5-0.3-0.2C308.5,771.2,307.2,766.4,304.1,767.4L304.1,767.4z"/>
		</g>
	</g>
	<g>
		<g>
			<path fill="#EADBAD" d="M397,801c0-1.1,2.4,0.5,0.5,0.7c-0.4-1.6-0.8-3.1-1.3-4.7c-1.9,0.8-3.8,1.6-5.7,2.4
				c-1.3,0.5-1.5,2.4-0.9,3.4c0.8,1.3,2.2,1.4,3.4,0.9c1.9-0.8,3.8-1.6,5.7-2.4c2.2-1,1.2-5-1.3-4.7c-3.7,0.5-5.7,4.7-3,7.7
				c2.7,2.9,7.5,0,7.5-3.4C402,797.8,397,797.8,397,801L397,801z"/>
		</g>
	</g>
	<g>
		<g>
			<path fill="#EADBAD" d="M166.3,739.7c0.2,0.5,0.2,0.6,0.2,0.4c0.1,0.3,0.1,0.7,0,1c-0.1,0.6-0.4,0.7-0.8,1
				c0.2-0.1,0.6-0.3-0.2,0.1c0.1,0,0.1,0,0.2,0c0.4-0.1-0.7,0.1-0.3,0c0.3,0,0.1,0-0.4-0.1c0.2,0.1,0.1,0-0.4-0.2
				c0.2,0.1,0.1,0-0.3-0.3c-0.1-0.1-0.2-0.3-0.3-0.4c-0.2-0.5-0.2-0.6-0.2-0.4c0-0.5-0.1-0.6-0.1-0.4c0-0.2,0-0.3,0.1-0.5
				c0.2-0.5,0.3-0.6,0.1-0.4c0.3-0.4,0.4-0.5,0.2-0.3c0.5-0.5,0.4-0.3,0.2-0.2c-0.3,0.2,0.7-0.2,0.2-0.1c0.5-0.1,0.6-0.1,0.4-0.1
				c-0.2,0-0.6-0.1,0.3,0.1c-0.2-0.1-0.1,0,0.3,0.2c-0.2-0.1-0.1,0,0.3,0.2c-0.2-0.2-0.1-0.1,0.2,0.3c0.1,0.1,0.1,0.3,0.2,0.4
				c-0.1-0.3-0.1-0.1,0,0.3c0-0.3,0-0.2-0.1,0.3c0.1-0.2,0-0.1-0.1,0.3c0-0.1,0.1-0.1,0.1-0.2c-0.4,0.6-0.2,0.3-0.1,0.2
				c-0.4,0.3-0.4,0.3-0.2,0.2c-0.6,0.3-0.4,0.1-0.2,0.1c-0.5,0-0.6,0.1-0.3,0.1c-0.6,0-0.5-0.1-0.2,0c1.3,0.5,2.7-0.5,3.1-1.7
				c0.4-1.4-0.5-2.6-1.7-3.1c-1.4-0.5-2.8,0-3.9,0.9c-1.2,0.9-1.6,2.4-1.3,3.8c0.5,2.5,3.8,3.6,5.8,2.1c1.3-1,1.8-2.2,1.5-3.8
				c-0.3-1.5-1.8-2.3-3.2-2.4c-1-0.1-2.1,0.5-2.9,1.1c-1.1,1-1.2,2.7-0.5,3.9c0.6,1.2,2.3,1.6,3.4,0.9
				C166.6,742.5,166.9,741,166.3,739.7L166.3,739.7z"/>
		</g>
	</g>
	<g>
		<g>
			<path fill="#EADBAD" d="M411.4,724.5c0.4-1.1,1.5-2.1,2.7-2.3c-0.7-0.4-1.4-0.8-2.2-1.2c0.3,0.4,0.2,0.7,0.4,0.4
				c-0.2,0.6-0.8,0.9-1.3,1.2c-1.2,0.7-2.8,1.1-4.2,0.8c0.6,0.6,1.2,1.2,1.7,1.7c-0.3-1.4,1.2-3.1,2.7-2.8c-0.6-0.6-1.2-1.2-1.7-1.7
				c0.4,2-1.8,3.3-3.4,3.1c-1.4-0.2-2.5,1.3-2.5,2.5c0,1.5,1.1,2.3,2.5,2.5c5.2,0.7,9.2-4.5,8.3-9.4c-0.2-0.8-1-1.6-1.7-1.7
				c-5.2-1.1-10.1,3.7-8.9,9c0.2,0.8,0.9,1.6,1.7,1.7c4.2,0.9,10.8-0.9,11.7-5.8c0.2-1.2,0-2.3-0.5-3.4c-0.8-1.8-2.4-1.9-4.1-1.6
				c-2.9,0.6-5.1,3.1-6,5.7C405.6,726.3,410.4,727.6,411.4,724.5L411.4,724.5z"/>
		</g>
	</g>
	<g>
		<g>
			<path fill="#EADBAD" d="M491.9,794.1c-1.3,1-2.6,0.7-3.7-0.4c-1.5-1.5,0-4.2,1.1-5.3c-1.4-0.6-2.8-1.2-4.3-1.8
				c0.1,1.8-1.3,4-3.4,3.6c0.6,1,1.2,2.1,1.7,3.1c0.4-2.1,1.6-3.5,3.6-4.4c-1.1-1.1-2.3-2.3-3.4-3.4c-1.2,1.9-2.4,3.8-3.6,5.8
				c-1.7,2.7,2.6,5.2,4.3,2.5c1.2-1.9,2.4-3.8,3.6-5.8c1.4-2.3-1.3-4.4-3.4-3.4c-3.1,1.4-5.2,4.1-5.9,7.4c-0.3,1.3,0.4,2.8,1.7,3.1
				c5.2,1.1,10-3.1,9.7-8.4c-0.1-2.1-2.7-3.4-4.3-1.8c-3,3-4.2,7.7-1.9,11.4c2.1,3.4,7.3,4.5,10.5,2.1
				C497,796.5,494.5,792.1,491.9,794.1L491.9,794.1z"/>
		</g>
	</g>
	<g>
		<g>
			<path fill="#EADBAD" d="M574.8,728.1c1.9-2.3,2.2-3.3,0.8-3.2c0.8,0,1.5,2,1.1,2.2c0.8-0.3,1.7-0.1,2.5,0
				c-0.6-1.4-1.2-2.8-1.8-4.3c-2.2,1.7-4.3,3.4-6.5,5.1c1.2,0,2.4,0,3.5,0c0.4,0.8-0.2,0.9-1.7,0.1c3.5-0.9,4-0.5,1.5,1.2
				c-0.7-1.3-1.4-2.5-2.2-3.8c-1.8,2.5-3.5,5.1-5.3,7.6c-1.7,2.5,1.9,4.7,3.9,3c3.4-2.8,6.8-5.7,10.2-8.5c-1.4-0.8-2.8-1.6-4.2-2.4
				c-0.3,2-1.7,3.7-3.9,3.8c-3.2,0.2-3.2,5.2,0,5c4.2-0.2,8-3.2,8.7-7.5c0.4-2.5-2.2-4.1-4.2-2.4c-3.4,2.8-6.8,5.7-10.2,8.5
				c1.3,1,2.6,2,3.9,3c1.8-2.5,3.5-5.1,5.3-7.6c1.2-1.7-0.4-3.6-2.2-3.8c-3.2-0.2-4,3.4-2.9,5.7c1.4,2.9,5.8,1.6,6.3-1.2
				c0.5-3-2.1-5.7-5.1-4.8c-3.4,1-3.4,5.3-1.6,7.6c0.9,1.1,2.6,0.8,3.5,0c2.2-1.7,4.3-3.4,6.5-5.1c1.9-1.5,0.1-4-1.8-4.3
				c-2.2-0.3-4.3,0-6.1,1.5c-1.6,1.3-1.6,3.9-0.2,5.3c2.9,2.9,8.7-0.6,5.5-4.2C576.2,722.1,572.7,725.7,574.8,728.1L574.8,728.1z"/>
		</g>
	</g>
	<g>
		<g>
			<path fill="#EADBAD" d="M589.2,795.1c-0.7-0.7-1.4-1.4-2.1-2.1c-1-1-2.6-1-3.5,0c-1,1-1,2.6,0,3.5c0.7,0.7,1.4,1.4,2.1,2.1
				c1,1,2.6,1,3.5,0C590.1,797.6,590.1,796,589.2,795.1L589.2,795.1z"/>
		</g>
	</g>
	<g>
		<g>
			<path fill="#EADBAD" d="M80.9,188.8c-0.4,0.8,0.5-0.4,1-0.4c0.3,0,0.1,0-0.1-0.1c0.3,0.2-0.2-0.4,0-0.1c0.1,0.1,0.1,0.3,0,0.4
				c0.5-1.1,2.3-1.5,3.3-1.8c-1-1-2.1-2.1-3.1-3.1c-0.2,1.2-0.3,2.8-1.2,3.8c-0.2,0.3-0.3,0.2-0.7,0.1c0.4,0-0.4-0.2-0.1,0
				c0.2,0.1,0.3,0.6,0.2,0c-0.2-1.4-1.9-2.1-3.1-1.7c-1.4,0.4-1.9,1.7-1.7,3.1c0.4,3,3.9,4.1,6.5,3.5c3.3-0.8,4.4-4.5,4.9-7.4
				c0.3-1.8-1.1-3.7-3.1-3.1c-3.5,1-7.8,3.3-6.8,7.6c0.8,3.5,6.4,5.5,8.2,1.7c0.6-1.2,0.4-2.7-0.9-3.4
				C83.2,187.3,81.5,187.6,80.9,188.8L80.9,188.8z"/>
		</g>
	</g>
	<g>
		<g>
			<path fill="#EADBAD" d="M90.6,129.4c1.5-2,3.1-3.9,4.6-5.9c-1.4-0.4-2.8-0.7-4.2-1.1c0.2,0.6,0.3,1.7-0.1,2.2
				c-0.3,0.4-0.9,0.3-1.4,0.5c-1,0.2-2,0.4-3,0.7c0.8,1.4,1.6,2.8,2.4,4.2c1.4-1.2,2.8-2.3,4.1-3.5c1-0.9,0.9-2.6,0-3.5
				c-1-1-2.5-0.9-3.5,0c-1.4,1.2-2.8,2.3-4.1,3.5c-2,1.7,0.2,4.7,2.4,4.2c2.6-0.6,5.5-0.7,7.1-3.2c1.2-1.9,1.3-4.2,0.8-6.3
				c-0.4-1.7-3-2.6-4.2-1.1c-1.5,2-3.1,3.9-4.6,5.9c-0.8,1.1-1.1,2.5,0,3.5C88,130.3,89.8,130.5,90.6,129.4L90.6,129.4z"/>
		</g>
	</g>
	<g>
		<g>
			<path fill="#EADBAD" d="M126.2,156.9c-0.8-2.1-3-2.9-4.7-1.3c-1.2,1.2-1.6,3.7-0.2,4.9c1.6,1.4,3.8,1,5.3-0.4
				c0.6-0.6,1.1-1.4,1.5-2.2c0-0.1,0.5-0.6,0.2-0.4c0.3-0.2,0.3-0.2,0.1-0.1c-0.4,0.1-0.8,0-1.2-0.2c-0.2-0.8-0.4-1.6-0.6-2.4
				c-0.1,0.3-0.3,0.9-0.3,1.1c0-0.1-0.4,0.7-0.2,0.5c-0.3,0.3-0.1,0.2,0.1,0.1c1.3-0.5,2.1,1.6,1.7,2.5c0.1-0.2,0.4-0.5,0,0
				c0,0,0.1-0.1,0.1-0.1c-0.3,0.3-0.8,0.5-1.3,0.5c-0.4-0.1-0.8-0.2-1.3-0.3c-0.3-0.6-0.7-1.1-1-1.7c0.1,3.2,5.1,3.2,5,0
				c-0.1-1.9-1.5-3.3-3.4-2.9c-1,0.2-2,1.2-2.4,2.1c-0.6,1.3-0.7,3,0.5,4c1.6,1.2,3.7,1.1,5.2-0.3c1.1-1,1.7-2.4,2.1-3.8
				c0.7-2.5-1.7-4.3-4-3.8c-1.5,0.3-2.8,1.5-3.6,2.9c-0.1,0.3-0.3,0.5-0.4,0.8c-0.1,0.2-0.5,0.6-0.1,0.3c1.4-1,2.3,1.3,2.2,2.2
				c0.1-0.3,0-0.2-0.1,0.2c0.3-0.5,0-0.3-1.1,0.8c-0.4,0-0.9,0-1.3,0c-0.1-0.1-0.3-0.1-0.4-0.2c-0.3-0.3-0.6-0.6-0.9-0.9
				c0-0.1-0.1-0.2-0.1-0.3c0.5,1.3,1.7,2.1,3.1,1.7C125.7,159.6,126.7,158.1,126.2,156.9L126.2,156.9z"/>
		</g>
	</g>
	<g>
		<g>
			<path fill="#EADBAD" d="M149.6,115.3c1.4-1.4,2.8-2.8,4.3-4.1c-1.4-0.8-2.8-1.6-4.2-2.4c-0.4,1.3-1.8,2.6-3.3,2.4
				c-1.3-0.2-2.7,0.3-3.1,1.7c-0.3,1.2,0.4,2.9,1.7,3.1c4.2,0.6,8.3-1.7,9.5-5.9c0.7-2.4-2.4-4.2-4.2-2.4c-1.4,1.4-2.8,2.8-4.3,4.1
				C143.7,114,147.3,117.5,149.6,115.3L149.6,115.3z"/>
		</g>
	</g>
	<g>
		<g>
			<path fill="#EADBAD" d="M120.2,89.3c-0.3-0.7,0.5-2.1,1.4-2.2c0.7,0,1.3,0.9,1.2,1.6c-0.1,0.5-0.3,0.4,0.1,0.1
				c0.3-0.2,0.6-0.3,1-0.4c2.1-0.6,3.9-1,5.1-2.9c-1.5-0.2-3-0.4-4.6-0.6c0.1,0.4-0.5,1.1-0.9,1.1c-3.1-0.7-4.5,4.2-1.3,4.8
				c4.2,0.9,8.1-2.9,7.1-7.2c-0.5-2.2-3.4-2.3-4.6-0.6c-0.2,0.3-1.1,0.4-1.5,0.5c-0.9,0.2-1.7,0.5-2.5,0.9c-2,0.9-3,3-2.7,5.2
				c0.3,2.1,2.8,2.8,4.5,2.5c1.8-0.3,3.2-2.3,2.5-4.1c-0.5-1.3-1.7-2.1-3.1-1.7C120.7,86.6,119.7,88,120.2,89.3L120.2,89.3z"/>
		</g>
	</g>
	<g>
		<g>
			<path fill="#EADBAD" d="M202.9,82.3c-0.1,0.4-0.1,0.4,0,0.2c-0.2,0.3-0.2,0.4,0,0.1c-0.2,0.3-0.2,0.3-0.1,0.1
				c0.2-0.2,0.2-0.2-0.1,0.1c0.2-0.1,0.2-0.1-0.1,0c0.1,0,0.2-0.1,0.3-0.1c-0.4,0-0.4,0.1-0.1,0.1c-0.1,0-0.8-0.3-0.5-0.1
				c-0.3-0.2-0.3-0.3-0.1-0.1c-0.2-0.3-0.3-0.3-0.1-0.1c-0.1-0.4-0.2-0.4-0.1-0.2c0.2,0.5,0-0.6,0,0c0,0.4,0.2-0.5,0,0.1
				c0.2-0.3,0.2-0.4,0-0.2c0.3-0.5,0.2-0.2,0,0c-1.1,0.9-0.9,2.6,0,3.5c1,1,2.5,0.9,3.5,0c1-0.8,1.6-2.3,1.5-3.6
				c-0.1-1.6-0.9-2.9-2.2-3.8c-1.4-0.9-3.1-0.7-4.5,0c-1.5,0.7-2.3,2.4-2.4,4c-0.1,1.4,1.2,2.5,2.5,2.5
				C201.8,84.8,202.9,83.6,202.9,82.3L202.9,82.3z"/>
		</g>
	</g>
	<g>
		<g>
			<path fill="#EADBAD" d="M211.2,125.9c0-0.5,0.1-0.5-0.1-0.1c0.1-0.1,0.1-0.3,0.2-0.4c-0.3,0.5,0.4-0.2-0.1,0.1
				c0.1-0.1,0.3-0.2,0.4-0.2c-0.5,0.3,0.5,0-0.1,0c0.3,0,0.3,0,0,0c0.4,0.1,0,0-0.1-0.1c0.2,0.2,0.2,0.2,0,0
				c0.4,0.5-0.1-0.4,0.1,0.2c0.1,0.3,0.1,0.3,0,0c0,0.1-0.1,0.8,0,0.2c0,0.1-0.1,0.3-0.1,0.4c0.1-0.5,0,0-0.1,0.1
				c0.2-0.2,0.2-0.2,0,0C211.7,125.6,211.3,125.9,211.2,125.9c-1.3,0.6-1.6,2.4-1,3.5c0.8,1.3,2.2,1.4,3.4,0.9
				c3.3-1.4,3.9-6.6,1.1-8.8c-3.3-2.7-9,0-8.6,4.4c0.1,1.4,1,2.5,2.5,2.5C210,128.4,211.4,127.3,211.2,125.9L211.2,125.9z"/>
		</g>
	</g>
	<g>
		<g>
			<path fill="#EADBAD" d="M279.1,98.5c-2.1,0-4.2,0-6.2,0c0.8,0.8,1.7,1.7,2.5,2.5c0.1-2.1,0.1-4.3,0.2-6.4
				c-1.6,0.4-3.1,0.8-4.7,1.3c0.6,0.9,0,2.7-1.3,2.4c0.5,0.4,1,0.8,1.5,1.1c-0.3-0.5,0-0.4,0.4-0.5c3.2-0.5,1.8-5.3-1.3-4.8
				c-5.1,0.8-5.9,9.6,0.1,9.2c4.5-0.3,7.6-6.1,4.9-9.9c-1.4-2-4.6-1.4-4.7,1.3c-0.1,2.1-0.1,4.3-0.2,6.4c0,1.4,1.2,2.5,2.5,2.5
				c2.1,0,4.2,0,6.2,0C282.3,103.5,282.3,98.5,279.1,98.5L279.1,98.5z"/>
		</g>
	</g>
	<g>
		<g>
			<path fill="#EADBAD" d="M414.8,105.5c-0.7,0.7-1.4,1.4-2.1,2.1c-1,1-1,2.6,0,3.5s2.6,1,3.5,0c0.7-0.7,1.4-1.4,2.1-2.1
				c1-1,1-2.6,0-3.5C417.4,104.5,415.8,104.5,414.8,105.5L414.8,105.5z"/>
		</g>
	</g>
	<g>
		<g>
			<path fill="#EADBAD" d="M459.3,97.5c2.8-0.8,5.7-1.6,8.5-2.4c-0.8-1.4-1.6-2.8-2.4-4.2c-3.1,2.8-6.1,5.5-9.2,8.3
				c1.4,0.8,2.8,1.6,4.2,2.4c0.6-1.7,1.3-3.4,1.9-5.2c1.1-3-3.7-4.3-4.8-1.3c-0.6,1.7-1.3,3.4-1.9,5.2c-0.9,2.5,2.5,4,4.2,2.4
				c3.1-2.8,6.1-5.5,9.2-8.3c1.9-1.7-0.1-4.8-2.4-4.2c-2.8,0.8-5.7,1.6-8.5,2.4C454.9,93.5,456.2,98.4,459.3,97.5L459.3,97.5z"/>
		</g>
	</g>
	<g>
		<g>
			<path fill="#EADBAD" d="M423.8,81.5c-0.2-1.4,1.7-2.9,3-2.6c3.1,0.7,4.5-4.1,1.3-4.8c-5.3-1.2-10,3.6-9.1,8.8
				c0.2,1.3,1.9,2.1,3.1,1.7C423.5,84.1,424,82.8,423.8,81.5L423.8,81.5z"/>
		</g>
	</g>
	<g>
		<g>
			<path fill="#EADBAD" d="M516.7,80.2c0-2.3,2-3.8,4.2-3.6c-0.8-1.1-1.6-2.1-2.4-3.2c-0.7,1.7-2.5,2.3-4.2,2.2
				c0.8,0.8,1.7,1.7,2.5,2.5c0,0.2-0.4,0.4,0.1,0.2c-0.2,0.1-0.3,0-0.4-0.1c2.4,2.2,5.9-1.4,3.5-3.5c-3-2.7-8.1-0.7-8.2,3.5
				c0,1.5,1.2,2.4,2.5,2.5c4,0.4,7.6-2.2,9-5.8c0.7-1.7-1-3-2.4-3.2c-4.9-0.6-9.3,3.8-9.2,8.6C511.8,83.4,516.8,83.4,516.7,80.2
				L516.7,80.2z"/>
		</g>
	</g>
	<g>
		<g>
			<path fill="#EADBAD" d="M549.7,119.4c0.2-0.2,0.6-0.4,0.9-0.4c0.2,0,0.4,0,0.6,0.2c-0.2-0.1-0.2-0.1,0.1,0.1
				c-0.2-0.2-0.2-0.2,0,0.1c-0.1-0.2-0.1-0.2,0,0.1c-0.1-0.3-0.1-0.2,0,0.2c0,0.2,0,0.4-0.1,0.6c-0.2,0.3-0.2,0.3,0,0.1
				c-0.3,0.2-0.3,0.2-0.1,0.1c-0.3,0.1-0.3,0.2-0.1,0.1c-0.4,0-0.4,0-0.1,0c0.3,0,0.3,0-0.1,0c0.1,0,0.2,0.1,0.4,0.1
				c-0.3-0.1-0.3-0.1-0.1,0c-0.2-0.2-0.3-0.2-0.1,0c0-1.2,0-2.4,0-3.5c-1.3,1.4-2.6,2.8-3.9,4.1c-0.9,1-1,2.6,0,3.5
				c0.9,0.9,2.6,1,3.5,0c1.3-1.4,2.6-2.8,3.9-4.1c0.9-1,1-2.6,0-3.5c-2.5-2.4-6.8-1.8-8.1,1.6c-0.6,1.7,0.5,3.7,1.9,4.6
				c1.5,1.1,3.5,0.9,4.8-0.4c1-0.9,0.9-2.6,0-3.5C552.2,118.4,550.7,118.5,549.7,119.4L549.7,119.4z"/>
		</g>
	</g>
	<g>
		<g>
			<path fill="#EADBAD" d="M591.6,111.8c1.4,0,2.7,0,4.1-0.1c-0.7-1.3-1.4-2.5-2.2-3.8c-1.2,2-3.1,3.2-5.4,3.2
				c0.6,1.4,1.2,2.8,1.8,4.3c0.3-0.3,0.9-1,1.4-1c-0.4,0.1-1.5-2.7,0-2.6c0.4,0.1,0.8,0.2,1.3,0.3c0.1,0.1,0.2,0.1,0.3,0.2
				c0.2,0.4,0.4,0.7,0.6,1.1c0,0.1,0,0.2,0,0.3c-0.2-3.2-5.2-3.2-5,0c0.2,4.4,5.8,3.5,6.7-0.1c0.5-2.1-1-3.6-2.9-4.2
				c-2.2-0.6-4.4,1-6,2.4c-1.6,1.5-0.4,4.3,1.8,4.3c4-0.1,7.7-2.2,9.7-5.7c1-1.6-0.3-3.8-2.2-3.8c-1.4,0-2.7,0-4.1,0.1
				C588.4,106.9,588.3,111.9,591.6,111.8L591.6,111.8z"/>
		</g>
	</g>
	<g>
		<g>
			<path fill="#EADBAD" d="M615.4,170.2c0.1,0.1,0.1,0.3,0.2,0.4c-0.1-0.3,0-0.1,0,0.4c-0.1,0.5-0.1,0.6-0.1,0.4
				c0.1-0.2,0-0.1-0.1,0.3c0.2-0.3-0.5,0.5-0.1,0.1c0.3-0.3-0.6,0.4-0.1,0.1c0.3-0.2-0.7,0.2-0.1,0.1c0.4-0.1-0.7,0-0.2,0
				c-0.5-0.1-0.6-0.1-0.4,0c0.2,0.1,0.1,0-0.3-0.1c-0.4-0.3-0.5-0.4-0.3-0.2c-0.3-0.4-0.3-0.5-0.2-0.3c-0.1-0.1-0.1-0.3-0.2-0.4
				c0.1,0.3,0,0.1,0-0.4c0.1-0.5,0.1-0.6,0.1-0.4c-0.1,0.2,0,0.1,0.1-0.3c-0.2,0.3,0.5-0.5,0.1-0.1c-0.3,0.3,0.6-0.4,0.1-0.1
				c-0.3,0.2,0.7-0.2,0.1-0.1c-0.4,0.1,0.7,0,0.2,0c0.5,0.1,0.6,0.1,0.4,0c-0.2-0.1-0.1,0,0.3,0.1c0.4,0.3,0.5,0.4,0.3,0.2
				C615.4,170.3,615.5,170.4,615.4,170.2c-0.7-1.2-2.3-1.6-3.4-0.9c-1.2,0.7-1.6,2.2-0.9,3.4c0.5,0.8,1.3,1.5,2.2,1.7
				c1.1,0.2,2,0,3-0.4c0.7-0.3,1.4-1,1.8-1.7c0.6-1.2,0.5-2.3,0-3.5c-0.4-0.8-1.4-1.5-2.2-1.7c-1.1-0.2-2,0-3,0.4
				c-0.7,0.3-1.4,1-1.8,1.7c-0.6,1.2-0.5,2.3,0,3.5c0.6,1.2,2.3,1.5,3.4,0.9C615.7,172.8,615.9,171.4,615.4,170.2L615.4,170.2z"/>
		</g>
	</g>
	<g>
		<g>
			<path fill="#EADBAD" d="M567.8,206.7c-0.6-1.6-0.4-2.5,0.6-2.7c-0.3,0.1-0.3,0.1-0.1,0.1c-0.3,0-0.3,0-0.1,0
				c0.5,0.2,0.8,0.5,0.9,1c0,0.3,0.2-0.2,0.5-0.4c0.5-0.4,1.1-0.7,1.7-0.9c-0.6-1.5-1.3-3-1.9-4.6c-2.7,1.3-5.5,2.6-8.2,3.8
				c1.2,0.9,2.4,1.9,3.7,2.8c0.2-0.7,0,0.1-0.3,0.1c0.7-0.1,0.3,0.3,0.1-0.3c0.9,3.1,5.7,1.8,4.8-1.3c-1.2-4.5-8.4-4.5-9.5,0.1
				c-0.5,2.3,1.7,3.8,3.7,2.8c2.7-1.3,5.5-2.6,8.2-3.8c2.6-1.2,0.7-5.6-1.9-4.6c-2.1,0.8-4,1.9-5.2,3.8c-1.1,1.8-0.9,4.6,1.1,5.7
				c1.5,0.9,3.3,0.7,4.8-0.1c2-1.1,2.2-3.7,0.6-5.2C569.1,200.9,565.5,204.4,567.8,206.7L567.8,206.7z"/>
		</g>
	</g>
	<g>
		<g>
			<path fill="#EADBAD" d="M595.7,231.8c-1.4,0-2.8,0-4.2,0c-3.2,0-3.2,5,0,5c1.4,0,2.8,0,4.2,0C599,236.8,599,231.8,595.7,231.8
				L595.7,231.8z"/>
		</g>
	</g>
	<g>
		<g>
			<path fill="#EADBAD" d="M123.2,220.8c-0.7,1.4-1.4,2.7-2.2,4.1c-0.6,1.2-0.3,2.7,0.9,3.4c1.1,0.7,2.8,0.3,3.4-0.9
				c0.7-1.4,1.4-2.7,2.2-4.1c0.6-1.2,0.3-2.7-0.9-3.4C125.5,219.2,123.8,219.6,123.2,220.8L123.2,220.8z"/>
		</g>
	</g>
	<g>
		<g>
			<path fill="#EADBAD" d="M92.1,348.9c4.8-2.3,2.1,2.8,2.8,1.3c0.2-0.3-0.1-0.1,0.5-0.1c-0.8-1.1-1.6-2.1-2.4-3.2
				c-1.8,8.2,9.9,12.9,14.8,6.5c2.5-3.2,0.5-7.7-2.3-9.9c-3.2-2.5-7.8-3-10.7,0.1c-2.2,2.3,1.3,5.9,3.5,3.5c2-2.1,6.7,1,5.1,3.7
				c-1.3,2.1-6.1-0.4-5.6-2.7c0.3-1.5-0.7-3.2-2.4-3.2c-2.8,0.1-4.9,1.5-5.5,4.4c-0.7,3.1,1.9,5.2,4.7,3.8
				C97.6,351.8,95,347.5,92.1,348.9L92.1,348.9z"/>
		</g>
	</g>
	<g>
		<g>
			<path fill="#EADBAD" d="M139.6,302.9c-0.1-0.1-0.2-0.2-0.3-0.3c-0.2-0.5-0.2-0.6-0.2-0.3c0-0.2,0-0.3-0.1-0.5
				c0.1-0.5,0.1-0.6,0-0.4c-0.1,0.4,0.3-0.6,0.1-0.2c-0.2,0.4,0.4-0.5,0.1-0.2c-0.3,0.3,0.5-0.4,0.2-0.1c-0.4,0.2,0.6-0.2,0.2-0.1
				c-0.4,0.1,0.7,0,0.3-0.1c0.5,0,0.8,0.2,1.2,0.5c-0.5-0.4-1-0.7-1.8-0.7c-0.7,0-1.3,0.3-1.8,0.7c-0.9,0.9-1.1,2.7,0,3.5
				c0.5,0.4,0.8,0.6,1.4,0.8c0.6,0.2,1.1,0.1,1.7,0c0.7-0.1,1.4-0.6,2-1.1c0.5-0.5,1-1.3,1.1-2c0.2-1.3-0.1-2.2-0.9-3.1
				c-0.8-1.1-2.7-0.9-3.5,0c-0.5,0.5-0.7,1.1-0.7,1.8C138.9,301.9,139.2,302.4,139.6,302.9L139.6,302.9z"/>
		</g>
	</g>
	<g>
		<g>
			<path fill="#EADBAD" d="M108.9,415.2c1-1.6,3-1.6,4.4-0.6c-0.2-1.3-0.3-2.6-0.5-3.9c-0.5,0.5-1,1-1.6,1.5
				c-2.4,2.2,1.2,5.7,3.5,3.5c0.5-0.5,1-1,1.6-1.5c1.3-1.2,0.8-3-0.5-3.9c-3.7-2.6-8.9-1.3-11.3,2.4
				C102.9,415.4,107.2,417.9,108.9,415.2L108.9,415.2z"/>
		</g>
	</g>
	<g>
		<g>
			<path fill="#EADBAD" d="M150.6,365.3c-2.1-0.4-4.1,0.5-5,2.4c-0.9,1.8-0.8,4.2,0.8,5.6c1,0.9,2.5,1,3.5,0c0.9-0.9,1-2.7,0-3.5
				c-0.2-0.1-0.4-0.5,0,0c-0.3-0.4,0.2,0.5,0,0c0.2,0.7,0,0.3,0.1,0.1c-0.1,0.9,0.3-0.4-0.1,0.4c0.1-0.1,0.2-0.3,0.2-0.4
				c-0.4,0.5-0.1,0.2,0,0c-0.5,0.5,0.2,0-0.5,0.3c0.3-0.1,0.2-0.1-0.2,0c0.3,0,0.2,0-0.2,0c1.3,0.3,2.7-0.4,3.1-1.7
				C152.6,367.1,151.9,365.6,150.6,365.3L150.6,365.3z"/>
		</g>
	</g>
	<g>
		<g>
			<path fill="#EADBAD" d="M80.8,488.2c2.8-2.8,5.7-5.6,8.5-8.5c-1.3-0.2-2.6-0.3-3.9-0.5c1.1,1.7-0.1,4.4-2.2,4.5
				c0.6,1.4,1.2,2.8,1.8,4.3c1.4-1.3,2.7-2.6,4.1-4c-1.3-0.2-2.6-0.3-3.9-0.5c0.4-0.9,0.7-1.7,1.1-2.6c0.3,0,0.3,0,0,0
				c1.1,0,1.3,2.7,1.3,2.7c1.7-2.7-2.6-5.3-4.3-2.5c-1.5,2.5,0.6,4.7,3.1,4.8c2.5,0.1,4.9-2.5,3.2-4.9c-0.9-1.3-2.7-1.7-3.9-0.5
				c-1.4,1.3-2.7,2.6-4.1,4c-1.6,1.5-0.4,4.3,1.8,4.3c5.7-0.2,9.7-7.1,6.5-12c-0.9-1.3-2.7-1.7-3.9-0.5c-2.8,2.8-5.7,5.6-8.5,8.5
				C75,486.9,78.6,490.5,80.8,488.2L80.8,488.2z"/>
		</g>
	</g>
	<g>
		<g>
			<path fill="#EADBAD" d="M115.8,566.7c-0.1-0.2,0-0.5,0,0.3c0-0.4-0.1,0.7-0.1,0.4c-0.1,0.5-0.1,0.4-0.5,0.8
				c0.2-0.3-0.6,0.4-0.3,0.2c0.4-0.3-0.7,0.2-0.1,0.1c0.4-0.1-0.7,0.1-0.3,0c0.1,0,0.2,0,0.3,0c0.6,0-0.7-0.2-0.1,0
				c0.5,0.1-0.6-0.4-0.1,0c0.3,0.2-0.5-0.5-0.3-0.2c-0.5-0.5-0.4-0.5-0.2-0.3c-0.1-0.2-0.1-0.3-0.2-0.5c0.1,0.2,0,0.1-0.1-0.5
				c0,0.2,0,0.1,0.1-0.4c-0.1,0.2,0,0.1,0.2-0.3c-0.6,1.2-0.4,2.7,0.9,3.4c1.1,0.6,2.9,0.3,3.4-0.9c0.6-1.4,0.6-2.8-0.5-4
				c-0.8-0.9-1.9-1.1-3-1.3c-2.5-0.3-4.9,2-4.1,4.5c0.4,1.3,1.7,2.1,3.1,1.7C115.3,569.4,116.2,568,115.8,566.7L115.8,566.7z"/>
		</g>
	</g>
	<g>
		<g>
			<path fill="#EADBAD" d="M75.9,616.2c0.1-0.1,0.3-0.1,0.4-0.1c-0.9,0.2,0.5,0.1-0.4,0c0.2,0,0.3,0.1,0.5,0.1
				c0.7,0.2-0.2-0.1,0.1,0.1c0.1,0.1,0.3,0.1,0.4,0.2c-0.6-0.4-0.2-0.1,0,0c-0.3-0.4-0.5-0.8-0.5-1.3c0.1-1.1,0.6-1.8,1.4-2
				c-0.1,0-0.2,0-0.3,0.1c-1.1,0.2-1.9,1.4-1.8,2.4c0,0.7,0,1.3,0.1,2c0,1.4,1.1,2.5,2.5,2.5c1.3,0,2.5-1.1,2.5-2.5
				c0-0.7,0-1.3-0.1-2c-0.6,0.8-1.2,1.6-1.8,2.4c1.5-0.2,2.3-1.4,2.5-2.8c0.1-1-0.5-2-1.2-2.6c-1.4-1.3-3.8-2.1-5.6-1.3
				c-1.3,0.5-2.1,1.6-1.7,3.1C73.2,615.7,74.7,616.8,75.9,616.2L75.9,616.2z"/>
		</g>
	</g>
	<g>
		<g>
			<path fill="#EADBAD" d="M119.3,676.8c0.2-0.6-0.3,0.4,0.1-0.1c-0.3,0.6,0.5-0.4-0.1,0c0.1-0.1,0.7-0.3,0.1-0.1
				c0.1,0,0.3-0.1,0.4-0.1c-0.3,0-0.4,0-0.1,0c-0.6,0,0.2,0.1-0.3-0.1c0.2,0.1,0.2,0.1,0-0.1c-0.2-0.2-0.2-0.3-0.3-0.5
				c0.2,0.5,0-0.6,0,0c0,0.3,0,0.2,0-0.2c0,0.1-0.1,0.2-0.1,0.3c0.2-0.7-0.2,0.2,0.2-0.4c-0.2,0.2-0.1,0.2,0.2-0.1
				c-0.2,0.1-0.2,0.1,0.2,0c0.1,0,1,0.1,0.5,0c0.4,0.1,0.7,0.3,0.9,0.7c0.1,0.4,0.2,0.5,0.1,0.2c0,0.1,0,0.3,0.1,0.4
				c0-0.3,0-0.2,0,0.2c0.1-0.7-0.2,0.3,0-0.1c0.1-0.2,0.1-0.2-0.1,0.2c0.2-0.2,0.1-0.1-0.2,0.1c-0.6,0.4-1.4,0.2-2-0.3
				c0-1.2,0-2.4,0-3.5c-1.3,1.1-2.6,2.2-4,3.2c-1.1,0.9-0.9,2.6,0,3.5c1,1,2.5,0.9,3.5,0c1.3-1.1,2.6-2.2,4-3.2c1-0.8,1-2.7,0-3.5
				c-1.2-1-2.8-1.4-4.2-0.4c-1.2,0.8-1.8,2.1-2,3.5c-0.4,3.5,3.9,5,6.3,2.8c2.2-2,2-5.8-0.6-7.3c-2.9-1.7-6.6,0.5-7.4,3.4
				C113.6,678.6,118.4,679.9,119.3,676.8L119.3,676.8z"/>
		</g>
	</g>
	<g>
		<g>
			<path fill="#EADBAD" d="M142.5,622.3c-1.1-0.7-2.7-0.6-3.6,0.4c-0.9,0.9-0.9,2-0.8,3.2c0.1,1,0.7,1.8,1.5,2.3
				c1.1,0.8,2.8,0.4,3.6-0.6c0.9-1,1-2.5,0-3.5c-0.9-0.9-2.6-1-3.5,0c0,0-0.1,0.1-0.1,0.1c0.3-0.3,0.6-0.4,0.9-0.5
				c0.7-0.3,1.7,0.1,2.1,0.5c0.3,0.4,0.4,0.6,0.3,0.4c-0.1-0.2,0-0.1,0.2,0.4c0-0.1-0.1-0.2-0.1-0.3c-0.1-0.4,0.1,0.8,0.1,0.3
				c0,0,0-0.1,0-0.1c0-0.3-0.1,0.8-0.1,0.4c0.1-0.2,0-0.1-0.2,0.5c-0.2,0.4-0.8,0.8-1.3,1c-0.4,0.1-0.8,0.1-1.1,0
				c0.3,0.1-0.7-0.3-0.4-0.1c1.2,0.7,2.7,0.3,3.4-0.9C144.1,624.5,143.6,623,142.5,622.3L142.5,622.3z"/>
		</g>
	</g>
	<g>
		<g>
			<path fill="#EADBAD" d="M556.8,654.4c1.2-2-0.1-4.1-2.1-4.7c-2-0.6-4.5,0.8-4.3,3.1c1.3-0.7,2.5-1.4,3.8-2.2
				c-0.2-0.1-0.2-0.1,0.2,0.2c-0.3-0.3,0.3,0.5,0.1,0.1c0.2,0.4,0.2,0.5,0.1,0.3c0.2,0.7,0,0.5,0.1,0.2c-0.1,0.5-0.1,0.6,0,0.3
				c0.1-0.5-0.3,0.6-0.1,0.2c0.1-0.2,0.1-0.1-0.2,0.2c-0.1,0.1-0.2,0.2-0.3,0.2c0.2-0.1,0.1-0.1-0.3,0.1c-0.5,0-0.6,0.1-0.3,0
				c-0.1,0-0.3,0-0.4-0.1c-0.4-0.2-0.5-0.2-0.3-0.1c-0.3-0.3-0.4-0.3-0.2-0.2c-0.1-0.1-0.2-0.2-0.2-0.3c0.1,0.2,0.1,0.1-0.1-0.3
				c0,0.1,0.1,0.2,0.1,0.2c-0.2-0.6,0-0.4,0-0.2c0-0.1,0-0.3,0.1-0.4c-0.1,0.2,0,0.2,0.1-0.3c0,0,0,0.1-0.1,0.1
				c0.1-0.2,0.3-0.4,0.5-0.6c-1.1,0.8-1.6,2.2-0.9,3.4c0.7,1.1,2.3,1.6,3.4,0.9c1.5-1,2.1-2.7,1.6-4.4c-0.4-1.7-2-2.9-3.7-2.9
				c-3.7,0-5.1,5.8-1.7,7.4c0.8,0.4,1.7,0.5,2.5,0c0.7-0.4,1.3-1.3,1.2-2.2c0-0.3,0-0.1-0.1,0.4c-0.1,0.8-0.7,1.1-1.4,1.4
				c0.2-0.1,0.1,0-0.4,0c0.2,0,0.6,0.1-0.3-0.1c0.6,0.1-0.5-0.3-0.1-0.1c-0.5-0.3-0.7-0.6-0.8-1.1c0-0.2,0-0.3-0.1-0.5
				c0.4-1,0.4-1.3,0.2-0.9c-0.7,1.2-0.3,2.7,0.9,3.4C554.5,656,556.1,655.6,556.8,654.4L556.8,654.4z"/>
		</g>
	</g>
	<g>
		<g>
			<path fill="#EADBAD" d="M546.3,509.3c0-0.1,0.1-0.8,0-0.4c0-0.2,0.2-0.2,0.1-0.1c0.2-0.3,0.4-0.3,1.1-0.5c0.2,0,0.9,0,1.3,0.1
				c-0.5-0.1,0.5,0.4,0.1,0.1c-0.1-0.1,0-0.1,0.1,0.2c0,0.1,0,0.1-0.2,0.3c0.4-0.4-0.6,0.3-0.2,0.1c-0.1,0-1,0.3-0.6,0.2
				c-0.4,0-0.7,0-1.1,0c0.5,0-0.7-0.3-0.2-0.1c-0.3-0.1-0.5-0.4-0.2,0c-0.2-0.2-0.1-0.1-0.2-0.6c-0.2-1.3-1.9-2.1-3.1-1.7
				c-1.4,0.4-2,1.7-1.7,3.1c1.2,6.7,13.1,5.2,12.5-1.7c-0.6-7.3-13.2-6.2-12.6,1C541.6,512.5,546.6,512.5,546.3,509.3L546.3,509.3z"
				/>
		</g>
	</g>
	<g>
		<g>
			<path fill="#EADBAD" d="M562.1,539.4c0.2,0.1,0.5,0.3,0.7,0.4c0.2,0.4,0.4,0.7,0.6,1.1c0.3,0.6-0.1,1.4-0.7,1.6
				c-1.1,0.4-1.8-0.9-1.3-0.1c-0.1-0.2,0.2,0.6,0.2,0.5c0.5,1.4,1,2.5,2.2,3.4c2.2,1.7,6.4,0.3,6-2.8c-0.2-1.4-1-2.5-2.5-2.5
				c-1.2,0-2.7,1.1-2.5,2.5c0.1,1.1,0.6-1.4,1.5-1.5c-0.5,0,0,0,0.2,0.1c-0.7-0.3,0.5,0.9,0.1,0c-0.1-0.1-0.2-0.6-0.3-0.9
				c-0.6-1.8-1.8-3.6-3.9-3.7c-1.5-0.1-2.9,0.9-3.6,2.1c-0.9,1.8-0.1,4,1.9,4.5C563.9,544.9,565.3,540.1,562.1,539.4L562.1,539.4z"
				/>
		</g>
	</g>
	<g>
		<g>
			<path fill="#EADBAD" d="M564.6,434.2c-0.1-0.1-0.2-0.2-0.3-0.3c-0.2-0.5-0.2-0.6-0.2-0.3c0-0.2,0-0.3-0.1-0.5
				c0.1-0.5,0.1-0.6,0-0.4c-0.1,0.4,0.3-0.6,0.1-0.2c-0.2,0.4,0.4-0.5,0.1-0.2c-0.3,0.3,0.5-0.4,0.2-0.1c-0.4,0.2,0.6-0.2,0.2-0.1
				c-0.4,0.1,0.7,0,0.3-0.1c0.5,0,0.8,0.2,1.2,0.5c-0.5-0.4-1-0.7-1.8-0.7c-0.7,0-1.3,0.3-1.8,0.7c-0.9,0.9-1.1,2.7,0,3.5
				c0.5,0.4,0.8,0.6,1.4,0.8c0.6,0.2,1.1,0.1,1.7,0c0.7-0.1,1.4-0.6,2-1.1c0.5-0.5,1-1.3,1.1-2c0.2-1.3-0.1-2.2-0.9-3.1
				c-0.8-1.1-2.7-0.9-3.5,0c-0.5,0.5-0.7,1.1-0.7,1.8C563.9,433.1,564.2,433.6,564.6,434.2L564.6,434.2z"/>
		</g>
	</g>
	<g>
		<g>
			<path fill="#EADBAD" d="M559.1,378.8c0.9-2.2-1.4-4.2-3.5-4c-1,0.1-1.9,0.4-2.6,1.1c-1,1-1.1,2.5-0.4,3.7
				c0.9,1.4,2.7,1.6,3.9,0.5c1.1-1,2.1-1.9,3.2-2.9c1-0.9,0.9-2.6,0-3.5c-1-1-2.5-0.9-3.5,0c-1.1,1-2.1,1.9-3.2,2.9
				c1.3,0.2,2.6,0.3,3.9,0.5c0,0,0-0.1-0.1-0.1c0.2,0.3,0.3,0.6,0.3,1c0,0.7-0.4,1.3-0.9,1.7c0.3-0.2-0.7,0.2-0.3,0.1
				c0.2-0.1,0.7-0.1-0.2,0c0.1,0,0.2,0,0.3,0c-0.5-0.1-0.7-0.1-0.4,0c0.2,0.1,0.1,0-0.4-0.2c0,0,0,0,0.1,0c-0.3-0.2-0.5-0.4-0.7-0.7
				c-0.3-0.5-0.4-1-0.2-1.6c0,0.1,0,0.1-0.1,0.2c-0.5,1.3,0.5,2.7,1.7,3.1C557.4,380.9,558.6,380.1,559.1,378.8L559.1,378.8z"/>
		</g>
	</g>
	<g>
		<g>
			<path fill="#EADBAD" d="M539.3,326.2c-0.3-0.3,0.4,0.6,0.2,0.3c0.2,0.4,0.2,0.6,0.3,1c0.1,0.8-0.5,1.4-1,1.8
				c0.3-0.2-0.8,0.2-0.2,0.1c0.2-0.1,0.6-0.1-0.4,0c0.1,0,0.2,0,0.3,0c0.1,0,0.1,0,0.2,0c0.4,0-0.8-0.1-0.4-0.1c0.1,0,0.1,0,0.2,0
				c0.4,0.1-0.6-0.3-0.3-0.1c0.3,0.1-0.6-0.5-0.4-0.3c-0.3-0.3-0.4-0.6-0.5-0.9c0-0.2-0.1-0.4-0.1-0.6c0.1-0.6,0.1-0.8,0.1-0.5
				c0.2-0.5,0.3-0.6,0.2-0.4c0.3-0.4,0.4-0.5,0.3-0.3c-0.9,1-1,2.5,0,3.5c0.9,0.9,2.6,1,3.5,0c1.1-1.2,1.3-2.9,0.2-4.2
				c-0.7-0.8-1.8-1-2.8-1.1c-1,0-2.1,0.3-2.8,1c-1.3,1.2-0.9,3.1,0.1,4.3c0.9,1,2.6,0.9,3.5,0C540.3,328.7,540.3,327.2,539.3,326.2
				L539.3,326.2z"/>
		</g>
	</g>
	<g>
		<g>
			<path fill="#EADBAD" d="M577.1,294.2c-0.8,2.7-1.7,5.5-2.5,8.2c-1,3.1,3.9,4.4,4.8,1.3c0.8-2.7,1.7-5.5,2.5-8.2
				C582.9,292.5,578.1,291.2,577.1,294.2L577.1,294.2z"/>
		</g>
	</g>
	<g>
		<g>
			<path fill="#EADBAD" d="M581.4,618.2c-0.1-0.1-0.3-0.2-0.4-0.3c0.2,0.2,0.1,0-0.3-0.4c-0.5-1-0.4-1.9,0.4-2.8
				c0.3-0.3,0.6-0.5,1-0.6c-0.2,0.1-0.6,0.1,0.4,0c-0.1,0-0.2,0-0.3,0c-0.4,0,0.7,0.1,0.4,0c-0.2,0-0.6-0.2,0.2,0.1
				c-0.2-0.1-0.5-0.4,0.2,0.2c-0.4-0.3,0.3,0.5,0.2,0.2c0.3,0.4,0.2,0.4,0.2,0.9c0-0.3-0.2,0.7,0,0.1c-0.2,0.7-0.2,0.4,0,0.2
				c-0.4,0.6-0.2,0.2,0,0.1c-0.5,0.5-0.3,0.2-0.1,0.1c-0.4,0.2-0.5,0.2-0.3,0.1c-0.5,0-0.6,0.1-0.4,0.1c-0.6,0-1.2-0.3-1.5-0.8
				c0.1,0.2,0.1,0.1-0.2-0.4c0-0.6-0.1-0.8-0.1-0.5c0.1-0.4,0.2-0.8,0.3-1.3c0.8-1,1.6-1.3,2.6-1.1c0,0-0.1,0-0.1,0
				c-0.3-0.1,0.7,0.3,0.3,0.1c-0.1,0-0.1-0.1-0.2-0.1c0.2,0.1,0.5,0.4,0.7,0.7c0.1,0.4,0.2,0.8,0.3,1.3c0,0,0,0,0,0
				c-0.2,0.6-0.5,1.2-0.7,1.8c0,0,0,0,0,0c-0.4,0.2-0.7,0.4-1.1,0.6c-1.3-0.1-1.7-0.1-1.2,0c0.2,0.1,0.1,0-0.4-0.2
				c0.6,0.3,1.2,0.4,1.9,0.3c0.6-0.2,1.2-0.6,1.5-1.1c0.6-1.1,0.4-2.9-0.9-3.4c-0.8-0.3-1.3-0.5-2.2-0.4c-0.8,0.1-1.5,1-1.8,1.8
				c-0.3,0.9,0.1,1.8,0.7,2.5c0.6,0.7,1.6,1.1,2.5,1.1c0.8,0.1,2-0.5,2.3-1.3c0.4-1,0.5-2-0.2-2.9c-1.1-1.6-3.2-2-4.8-1
				c-1.2,0.8-2.3,2.3-2.2,3.8c0.1,1.6,1.1,2.7,2.6,3.2c0.9,0.3,2.2,0.3,3-0.2c0.8-0.5,1.4-1.4,1.3-2.3c-0.1-1.1-0.6-1.8-1.5-2.5
				c-1.1-0.8-2.8-0.2-3.4,0.9C579.8,616,580.3,617.4,581.4,618.2L581.4,618.2z"/>
		</g>
	</g>
	<g>
		<g>
			<path fill="#EADBAD" d="M592.8,667.7c-1-0.7-1.1-2.1-0.3-3c-0.3,0.3,0.6-0.4,0.2-0.2c-0.4,0.2,0.6-0.2,0.2-0.1
				c-0.1,0-0.2,0.1-0.3,0.1c0.8-0.2,0.4-0.1,0.2-0.1c-0.5,0,0.7,0.1,0.2,0c0.4,0.2,0.5,0.2,0.3,0.1c0.3,0.1,0.5,0.3,0.6,0.6
				c0.1,0.1,0.1,0.3,0.2,0.4c-0.1-0.2,0-0.2,0,0.2c0-0.6-0.1,0.5,0-0.1c-0.2,0.6,0,0.1,0.1-0.1c-0.3,0.5,0.2-0.1,0.3-0.2
				c-0.4,0.4,0.1,0,0.2-0.1c0.2-0.1,0.4-0.2,0.6-0.3c0.1,0,0.7-0.3,0.2-0.1c0.3-0.1,0.5-0.2,0.8-0.3c-0.8-0.2-1.6-0.4-2.4-0.6
				c-0.3-0.4-0.4-0.7-0.5-1.2c-0.1-0.6,0.2-0.9,0.5-1.2c-0.1,0.2-0.5,0.3,0.2-0.1c-0.5,0.3,0.5-0.1,0.1,0c-0.1,0-0.2,0.1-0.3,0.1
				c0.5-0.1,0.6-0.1,0.3-0.1c-0.3,0-0.1,0,0.4,0.1c-0.2-0.1-0.1,0,0.3,0.2c-0.2-0.1-0.1,0,0.3,0.2c0.2,0.2,0.4,0.5,0.5,0.8
				c0,0.5,0.1,0.6,0.1,0.3c0.1-1.4-1.2-2.5-2.5-2.5c-1.4,0-2.4,1.1-2.5,2.5c-0.2,2.6,2.6,3.9,4.8,3.2c2.6-0.8,3.8-3.6,1.9-5.8
				c-0.6-0.6-1.6-0.9-2.4-0.6c-2,0.7-3.7,1.6-4.9,3.3c-0.6,0.8-0.8,1.9-0.8,2.8c0.1,1.3,0.7,2.2,1.7,2.9c1.3,0.9,3.3,0.6,4.6-0.2
				c1-0.6,1.6-1.6,1.7-2.7c0.1-1.2-0.7-2.1-1.6-2.8c-1.1-0.8-2.8-0.2-3.4,0.9C591.2,665.5,591.7,666.9,592.8,667.7L592.8,667.7z"/>
		</g>
	</g>
	<g>
		<g>
			<path fill="#EADBAD" d="M77.9,734.8c-1.1-0.7-2.7-0.6-3.6,0.4c-0.9,0.9-0.9,2-0.8,3.2c0.1,1,0.7,1.8,1.5,2.3
				c1.1,0.8,2.8,0.4,3.6-0.6c0.9-1,1-2.5,0-3.5c-0.9-0.9-2.6-1-3.5,0c0,0-0.1,0.1-0.1,0.1c0.3-0.3,0.6-0.4,0.9-0.5
				c0.7-0.3,1.7,0.1,2.1,0.5c0.3,0.4,0.4,0.6,0.3,0.4c-0.1-0.2,0-0.1,0.2,0.4c0-0.1-0.1-0.2-0.1-0.3c-0.1-0.4,0.1,0.8,0.1,0.3
				c0,0,0-0.1,0-0.1c0-0.3-0.1,0.8-0.1,0.4c0.1-0.2,0-0.1-0.2,0.5c-0.2,0.4-0.8,0.8-1.3,1c-0.4,0.1-0.8,0.1-1.1,0
				c0.3,0.1-0.7-0.3-0.4-0.1c1.2,0.7,2.7,0.3,3.4-0.9C79.5,737,79,735.5,77.9,734.8L77.9,734.8z"/>
		</g>
	</g>
</g>
</svg>
