<?xml version="1.0" standalone="no"?><svg xmlns="http://www.w3.org/2000/svg" viewBox="0 0 1440 320"><path fill="#273036" fill-opacity="1" d="M0,32L26.7,58.7C53.3,85,107,139,160,165.3C213.3,192,267,192,320,176C373.3,160,427,128,480,144C533.3,160,587,224,640,229.3C693.3,235,747,181,800,181.3C853.3,181,907,235,960,256C1013.3,277,1067,267,1120,245.3C1173.3,224,1227,192,1280,165.3C1333.3,139,1387,117,1413,106.7L1440,96L1440,0L1413.3,0C1386.7,0,1333,0,1280,0C1226.7,0,1173,0,1120,0C1066.7,0,1013,0,960,0C906.7,0,853,0,800,0C746.7,0,693,0,640,0C586.7,0,533,0,480,0C426.7,0,373,0,320,0C266.7,0,213,0,160,0C106.7,0,53,0,27,0L0,0Z"></path></svg>